<svg id="Capa_1" enable-background="new 0 0 511.091 511.091" height="512" viewBox="0 0 511.091 511.091" width="512" xmlns="http://www.w3.org/2000/svg"><g><g><path d="m282.709 60.254 11.761-25.932c.966-2.13.167-4.645-1.851-5.827l-34.764-20.37c-1.426-.836-3.192-.836-4.618 0l-34.764 20.37c-2.018 1.182-2.816 3.698-1.851 5.827l11.761 25.932 11.55 22.631h35.213z" fill="#fee97d"/><path d="m324.705 81.568c0-5.012-2.677-9.643-7.021-12.144l-12.681-7.301c-2.127-1.224-4.538-1.869-6.992-1.869h-84.931c-2.454 0-4.865.644-6.992 1.869l-12.681 7.301c-4.344 2.501-7.021 7.132-7.021 12.144v77.557h138.318v-77.557z" fill="#fef0ae"/><path d="m293.707 111.163v-22.336c0-2.001-.774-3.924-2.159-5.368l-22.275-23.205h-27.454l-22.275 23.205c-1.386 1.443-2.159 3.367-2.159 5.368v22.336 33.59h74.151z" fill="#fee45a"/><g><path d="m368.455 142.164-28.879-28.09c-1.919-1.867-4.491-2.911-7.169-2.911h-153.723c-2.677 0-5.249 1.044-7.169 2.911l-28.879 28.09-8.346 13.669 40.891 84.057h169.603l32.984-88.584z" fill="#fee97d"/></g><path d="m378.62 219.16c5.765-24.788 4.983-52.197 1.059-80.864-.398-2.911-4.021-4.036-6-1.864l-30.227 33.17h-16.393c-3.531 0-6.671 2.245-7.813 5.587l-6.777 19.828-16.883 48.863 72.87 5.732z" fill="#fee45a"/><g><path d="m198.622 195.017-6.777-19.828c-1.142-3.341-4.282-5.587-7.813-5.587h-16.392l-30.227-33.17c-1.979-2.172-5.602-1.047-6 1.864-3.924 28.667-4.706 56.076 1.059 80.864l17.814 69.159 58.936-63.028z" fill="#fee45a"/><path d="m230.566 274.814-21.345-21.726-100.476-20.526-47.535 31.897 18.096 47.555 30.67 37.13c2.57 3.11 4.35 6.81 5.17 10.76l8.12 38.87c2.18 10.47 14.95 14.56 22.82 7.31l26.11-24.1 64.05-37.88z" fill="#dfa8d2"/><path d="m236.246 344.104-5.68-69.29-21.345-21.726-71.393-14.585c-.814 5.519-1.023 11.149-.54 16.79l9.472 111.048c.923 10.716 4.6 20.798 10.505 29.424l14.931-13.781z" fill="#d691c6"/><g id="XMLID_614_"><g><path d="m228.386 248.204 2.18 26.61-74.32-21.3-28.69-4.76c-11.3-1.87-22.42 1.06-31.33 8.27-.45.37-.9.75-1.33 1.13-7.25 6.39-11.64 15.43-12.63 25.04l-2.96 28.82-4.33-5.24-20.7-6.48c-1.93-.6-3.22-2.43-3.13-4.46l.51-11.23c1.87-41.63 39.71-72.27 80.82-65.44l30.74 5.1z" fill="#edcbe4"/></g></g><g id="XMLID_653_"><g><path d="m405.715 234.631-75.298 5.259-34.831 24.205-20.44 60.79 63.75 57.1 26.11 24.1c7.87 7.25 20.64 3.16 22.82-7.31l8.12-38.87c.82-3.95 2.6-7.65 5.17-10.76l30.67-37.13 12.917-36.573z" fill="#dfa8d2"/><path d="m295.586 264.094-20.44 60.79 63.75 57.1 13.802 12.74c5.494-8.395 8.898-18.11 9.776-28.398l9.481-111.039c.521-6.138.239-12.265-.768-18.244l-40.77 2.847z" fill="#d691c6"/><path d="m459.946 295.834c.09 2.03-1.2 3.86-3.13 4.46l-20.7 6.48-4.33 5.24-2.96-28.82c-.99-9.61-5.38-18.65-12.63-25.04-.43-.38-.88-.76-1.33-1.13-8.91-7.21-20.03-10.14-31.33-8.27l-28.69 4.76-59.26 10.58 10.6-31.53 41.69-8.3 30.74-5.1c41.11-6.83 78.95 23.81 80.82 65.44z" fill="#edcbe4"/></g></g><path d="m260.402 148.841-15.311-22.328-16.706 5.222v41.13c0 1.37.46 2.7 1.32 3.77l25.84 27.63 7.408-20.336z" fill="#ee6161"/><path d="m275.146 126.513-19.6 15.246v17.366 33.95 11.19l.48.51 25.36-28.14c.86-1.07 1.32-2.4 1.32-3.77v-41.13z" fill="#f37c7c"/><g id="XMLID_548_"><g><path d="m230.566 274.814-2.18-26.61-65.17-23.94-20.472-3.396c-3.889 9.265-5.858 19.299-5.688 29.463l19.19 3.184z" fill="#dfa8d2"/><path d="m306.186 232.564-10.6 31.53 59.26-10.58 17.337-2.876c.208-10.167-1.72-20.208-5.567-29.483l-18.74 3.109z" fill="#dfa8d2"/><path d="m338.146 213.174c10.11 10.92 15.14 25.59 13.88 40.42l-9.48 111.03c-1.05 12.31-7.55 23.52-17.72 30.55l-28.6 19.76-84.67-1-27.14-18.76c-10.17-7.03-16.67-18.24-17.73-30.55l-9.47-111.03c-1.27-14.83 3.77-29.5 13.87-40.42l2.89-3.12c10.01-10.83 24.09-16.98 38.83-16.98h83.63c14.74 0 28.81 6.15 38.82 16.98z" fill="#e7b9db"/></g></g><path d="m272.469 347.613h-37.152c-7.606 0-14.704 2.204-20.693 6.006-5.373 3.411-12.447-.132-12.988-6.473l-7.979-93.551c-1.27-14.83 3.77-29.5 13.87-40.42l2.89-3.12c10.01-10.829 24.089-16.979 38.828-16.98h-36.438c-14.74 0-28.82 6.15-38.83 16.98l-2.89 3.12c-10.1 10.92-15.14 25.59-13.87 40.42l9.47 111.03c1.06 12.31 7.56 23.52 17.73 30.55l27.14 18.76 53.905.637 30.765.363 15.001-10.364v-18.2c-.002-21.406-17.354-38.758-38.759-38.758zm-24.473 66.322-27.14-18.76c-2.173-1.502-4.167-3.205-5.987-5.058l49.679 24.014z" fill="#dfa8d2"/><path d="m296.226 386.371v58.761c0 3.277 1.302 6.419 3.619 8.736 4.142 4.142 10.623 4.806 15.519 1.59l26.16-17.182c4.289-2.817 10.062-1.479 12.674 2.938l6.269 10.601c2.134 3.608 1.491 8.212-1.549 11.098l-26.15 24.819c-10.728 10.183-24.956 15.86-39.747 15.86h-23.726c-31.887 0-57.737-25.85-57.737-57.737v-59.483c0-13.121 10.637-23.758 23.758-23.758h37.152c13.121-.001 23.758 10.636 23.758 23.757z" fill="#e7b9db"/><path d="m317.711 484.201h-23.726c-31.887 0-57.737-25.85-57.737-57.737v-59.483c0-1.493.145-2.952.408-4.369h-1.339c-13.121 0-23.758 10.637-23.758 23.758v59.483c0 31.887 25.85 57.737 57.737 57.737h23.726c14.792 0 29.019-5.677 39.747-15.86l9.521-9.036c-7.625 3.588-16.005 5.507-24.579 5.507z" fill="#dfa8d2"/><g id="XMLID_657_"><g><path d="m282.706 131.734-27.16 27.39-27.16-27.39c0-1.48.57-2.91 1.6-3.98l22.21-23.1c1.83-1.9 4.87-1.9 6.7 0l22.21 23.1c1.03 1.07 1.6 2.5 1.6 3.98z" fill="#f79595"/></g></g><path d="m250.07 220.569-12.546 15.681c-1.702 2.128-1.702 5.151 0 7.278l12.546 15.682c2.332 2.915 6.765 2.915 9.097 0l12.546-15.682c1.702-2.128 1.702-5.151 0-7.278l-12.546-15.681c-2.332-2.915-6.765-2.915-9.097 0z" fill="#f37c7c"/></g></g><g><path d="m467.433 295.5-.505-11.234c-.686-15.221-5.775-29.726-14.72-41.945-2.446-3.342-7.14-4.068-10.481-1.622-3.343 2.446-4.069 7.139-1.622 10.481 7.192 9.827 11.286 21.502 11.839 33.761l.399 8.896-14.421 4.517-1.641-15.925c-1.21-11.742-6.58-22.359-15.119-29.895-.517-.456-1.044-.902-1.581-1.336-10.59-8.577-23.829-12.073-37.278-9.842l-22.73 3.773c-.335-5.028-1.305-9.974-2.855-14.732l23.129-3.839c13.316-2.211 26.662-.115 38.587 6.06 1.103.571 2.28.842 3.442.842 2.713 0 5.332-1.478 6.666-4.054 1.904-3.678.467-8.204-3.212-10.108-11.681-6.048-24.452-8.935-37.434-8.549 3.435-20.873 3.174-44.528-.788-73.468-.583-4.263-3.499-7.704-7.608-8.982-4.112-1.28-8.465-.1-11.366 3.082l-.005.005-23.325-22.688c-3.338-3.246-7.74-5.034-12.396-5.034h-.203v-22.096c0-7.672-4.13-14.816-10.779-18.645l-12.68-7.299c-3.26-1.878-6.972-2.87-10.734-2.87h-3.667l6.955-15.335c2.561-5.646.458-12.265-4.889-15.396l-34.765-20.37c-3.762-2.205-8.438-2.205-12.202 0l-34.762 20.369c-5.349 3.132-7.451 9.751-4.891 15.396l6.955 15.335h-3.667c-3.763 0-7.475.992-10.733 2.869l-12.681 7.3c-6.649 3.828-10.779 10.973-10.779 18.645v22.095h-.203c-4.656 0-9.059 1.788-12.397 5.035l-23.324 22.687-.007-.007c-2.899-3.179-7.252-4.361-11.364-3.08-4.109 1.278-7.025 4.72-7.608 8.981-3.964 28.954-4.224 52.619-.784 73.499-18.24-.496-36.22 5.486-50.568 17.105-17.102 13.849-27.478 34.399-28.467 56.384l-.506 11.234c-.243 5.419 3.201 10.333 8.374 11.951l18.579 5.818 33.584 40.654c1.788 2.164 3.036 4.761 3.61 7.51l8.115 38.873c1.586 7.597 6.945 13.544 14.337 15.911 2.18.697 4.395 1.039 6.584 1.039 5.232 0 10.306-1.954 14.327-5.665l19.908-18.37c2.649 3.036 5.679 5.776 9.074 8.122l23.906 16.521v18.885c0 4.143 3.357 7.5 7.5 7.5s7.5-3.357 7.5-7.5v-74.137c0-4.143-3.357-7.5-7.5-7.5s-7.5 3.357-7.5 7.5v37.019l-15.379-10.627c-8.359-5.777-13.65-14.897-14.516-25.022l-4.799-56.223c-.353-4.128-3.982-7.186-8.11-6.835-4.127.353-7.188 3.983-6.835 8.11l4.799 56.224c.449 5.255 1.737 10.317 3.748 15.039l-21.969 20.271c-2.424 2.235-5.12 1.698-6.166 1.363s-3.553-1.463-4.227-4.691l-8.115-38.872c-1.07-5.125-3.397-9.966-6.73-13.998l-28.674-34.711 2.647-25.694c.821-7.981 4.418-15.15 10.129-20.189.354-.313.716-.619 1.089-.922 7.211-5.839 16.222-8.221 25.382-6.701l23.912 3.969 1.447 16.95c.353 4.127 3.979 7.177 8.11 6.835 4.128-.353 7.188-3.983 6.835-8.11l-1.95-22.841c-1.084-12.694 3.257-25.338 11.907-34.688l2.891-3.124c8.564-9.258 20.71-14.567 33.321-14.567h83.628c12.611 0 24.757 5.31 33.322 14.568l2.89 3.123c8.65 9.351 12.991 21.994 11.908 34.688l-9.479 111.026c-.864 10.125-6.155 19.245-14.515 25.022l-16.833 11.632v-38.024c0-4.143-3.357-7.5-7.5-7.5s-7.5 3.357-7.5 7.5v82.519c0 5.302 2.064 10.288 5.815 14.04 6.624 6.622 17.111 7.698 24.938 2.556l26.159-17.183c.442-.29.874-.271 1.155-.207.284.066.679.24.947.694l6.27 10.601c.355.602.25 1.358-.257 1.84l-26.149 24.819c-9.376 8.898-21.659 13.8-34.585 13.8h-23.726c-20.096 0-38.217-11.935-46.164-30.405-1.637-3.804-6.048-5.562-9.854-3.926-3.806 1.638-5.563 6.049-3.926 9.854 10.319 23.981 33.848 39.478 59.943 39.478h23.726c16.786 0 32.735-6.364 44.911-17.921l26.149-24.819c5.611-5.326 6.779-13.696 2.841-20.355l-6.27-10.601c-2.283-3.86-6.099-6.656-10.469-7.67-4.369-1.009-9.026-.182-12.777 2.281l-26.16 17.183c-1.912 1.259-4.479.994-6.097-.623-.918-.918-1.423-2.138-1.423-3.435v-26.262l25.36-17.525c3.749-2.59 7.068-5.647 9.901-9.069l20.935 19.318c4.022 3.71 9.095 5.664 14.328 5.664 2.188 0 4.405-.342 6.584-1.04 7.391-2.366 12.75-8.314 14.336-15.911l8.115-38.871c.574-2.749 1.823-5.348 3.611-7.513l33.583-40.651 18.579-5.819c5.18-1.62 8.624-6.535 8.38-11.953zm-166.173-226.876 12.681 7.3c2.013 1.159 3.264 3.321 3.264 5.645v22.095h-15.998v-14.837c0-3.957-1.509-7.708-4.249-10.563l-10.089-10.51h11.143c1.138 0 2.261.3 3.248.87zm-36.583 116.952h-1.632v-23.365l12.163-12.262v22.408zm-18.263 0-10.531-13.219v-22.408l12.163 12.262v23.365zm26.942-55.059-17.811 17.956-17.811-17.956 17.811-18.528zm-9.052-31.061c-2.278-2.37-5.472-3.729-8.759-3.729s-6.48 1.359-8.76 3.73l-4.043 4.206h-17.858v-14.836c0-.065.024-.127.069-.174l20.062-20.898h21.06l20.062 20.898c.045.047.069.108.069.174v14.836h-17.858zm-39.76-65.826 31.002-18.166 31.002 18.166-8.673 19.124h-44.659zm-30.658 47.938c0-2.323 1.251-4.485 3.264-5.645l12.682-7.301c.986-.568 2.109-.868 3.248-.868h11.143l-10.089 10.51c-2.74 2.854-4.249 6.605-4.249 10.563v14.836h-15.998v-22.095zm-102.374 169.627c-.54.437-1.067.883-1.58 1.336-8.543 7.538-13.913 18.155-15.123 29.897l-1.641 15.924-14.421-4.516.399-8.896c.797-17.701 9.152-34.249 22.922-45.4 13.771-11.152 31.695-15.883 49.175-12.982l21.366 3.546c-1.574 4.75-2.573 9.693-2.932 14.719l-20.892-3.468c-13.442-2.227-26.685 1.267-37.273 9.84zm76.96-46.238-2.89 3.123c-2.298 2.484-4.356 5.148-6.185 7.947l-20.649-3.427c-3.58-18.332-3.908-39.176-.992-64.656l24.339 26.71c1.422 1.56 3.434 2.448 5.544 2.448h16.393c.324 0 .612.205.717.512l4.383 12.825c-7.761 3.309-14.835 8.222-20.66 14.518zm35.095-18.662-4.625-13.531c-2.179-6.377-8.171-10.661-14.91-10.661h-13.08l-17.882-19.624 23.674-23.027c.522-.508 1.211-.788 1.939-.788h49.64l-3.745 3.896c-2.384 2.48-3.696 5.741-3.696 9.18v41.123c0 3.059 1.05 6.061 2.955 8.451l3.397 4.264h-14.43c-3.109-.002-6.196.243-9.237.717zm80.29-.719 3.396-4.263c1.906-2.392 2.956-5.394 2.956-8.452v-41.123c0-3.438-1.313-6.699-3.697-9.181l-3.744-3.895h49.64c.729 0 1.417.28 1.938.787l23.675 23.028-17.882 19.624h-13.08c-6.739 0-12.731 4.284-14.91 10.66l-4.733 13.848c-3.603-.67-7.276-1.035-10.984-1.035h-12.575zm59.797 22.504-2.889-3.122c-5.419-5.858-11.924-10.511-19.053-13.798l4.63-13.547c.104-.306.393-.511.717-.511h16.393c2.11 0 4.122-.889 5.544-2.448l24.339-26.71c2.917 25.48 2.586 46.323-.994 64.656l-22.326 3.706c-1.873-2.901-3.988-5.661-6.361-8.226zm51.679 136.29c-3.333 4.036-5.66 8.876-6.73 13.999l-8.115 38.872c-.674 3.229-3.18 4.356-4.227 4.691s-3.74.874-6.166-1.363l-23.314-21.513c1.718-4.365 2.83-9.001 3.239-13.799l8.949-104.823 25.79-4.28c9.155-1.523 18.171.86 25.387 6.703.37.3.731.605 1.09.922 5.707 5.036 9.304 12.205 10.125 20.187l2.647 25.694z"/><path d="m265.023 215.882c-2.542-3.177-6.335-4.999-10.404-4.999s-7.862 1.822-10.404 4.999c-.001.001-.001.001-.001.001l-12.546 15.683c-3.922 4.902-3.921 11.748 0 16.648l12.546 15.682c2.543 3.178 6.335 5.001 10.405 5.001s7.862-1.823 10.405-5.001l12.545-15.681c3.922-4.901 3.923-11.747.001-16.65zm-10.404 37.009-10.401-13.001 10.401-13.002 10.401 13.001z"/><path d="m194.818 251.544h-8.22c-4.143 0-7.5 3.357-7.5 7.5s3.357 7.5 7.5 7.5h8.22c1.203 0 2.394.312 3.443.902l29.906 16.823c1.162.653 2.425.964 3.67.964 2.621 0 5.167-1.377 6.544-3.824 2.03-3.609.75-8.183-2.86-10.214l-29.906-16.823c-3.29-1.85-7.023-2.828-10.797-2.828z"/><path d="m176.586 288.045c-2.413 3.366-1.641 8.052 1.726 10.466l7.384 5.294c3.642 2.61 7.935 3.99 12.415 3.99h12.032c5.69 0 11.04-2.216 15.065-6.238 2.929-2.929 2.93-7.678.002-10.607-2.929-2.929-7.677-2.929-10.607-.002-1.191 1.191-2.775 1.848-4.46 1.848h-12.033c-1.326 0-2.597-.408-3.675-1.182l-7.384-5.294c-3.364-2.411-8.05-1.642-10.465 1.725z"/><path d="m324.493 251.544h-8.22c-3.773 0-7.507.978-10.797 2.828l-29.906 16.823c-3.61 2.031-4.891 6.604-2.86 10.214 1.377 2.448 3.923 3.824 6.544 3.824 1.245 0 2.508-.311 3.67-.964l29.906-16.823c1.05-.591 2.24-.902 3.443-.902h8.22c4.143 0 7.5-3.357 7.5-7.5s-3.358-7.5-7.5-7.5z"/><path d="m324.04 286.32-7.384 5.294c-1.078.773-2.349 1.182-3.675 1.182h-12.032c-1.685 0-3.269-.656-4.46-1.848-2.932-2.929-7.68-2.928-10.607.002s-2.927 7.679.002 10.607c4.025 4.022 9.375 6.238 15.065 6.238h12.032c4.48 0 8.773-1.38 12.415-3.99l7.384-5.294c3.366-2.414 4.139-7.1 1.726-10.466-2.414-3.367-7.101-4.136-10.466-1.725z"/></g></g></svg>